<?xml version="1.0" encoding="utf-8"?>
<!-- Generator: Adobe Illustrator 22.1.0, SVG Export Plug-In . SVG Version: 6.00 Build 0)  -->
<svg version="1.1" id="copy_only" xmlns="http://www.w3.org/2000/svg" xmlns:xlink="http://www.w3.org/1999/xlink" x="0px" y="0px"
	 viewBox="0 0 19 19" style="enable-background:new 0 0 19 19;" xml:space="preserve">
<g>
	<path d="M6,14c-0.6,0-1-0.4-1-1V7H4C3.4,7,3,7.4,3,8v7c0,0.6,0.4,1,1,1h7c0.6,0,1-0.4,1-1v-1H6z"/>
</g>
<path d="M15,12H8c-0.6,0-1-0.4-1-1V4c0-0.6,0.4-1,1-1h7c0.6,0,1,0.4,1,1v7C16,11.6,15.6,12,15,12z"/>
</svg>
