<svg id="Graph_Tile" data-name="Graph Tile" xmlns="http://www.w3.org/2000/svg" viewBox="0 0 19 19"><title>Artboard 1</title><polygon points="15.5 13.5 15.5 12.75 14.5 12.75 14.5 13.5 13 13.5 13 12.75 12 12.75 12 13.5 10.5 13.5 10.5 12.75 9.5 12.75 9.5 13.5 8 13.5 8 12.75 7 12.75 7 13.5 5.5 13.5 5.5 12 6.25 12 6.25 11 5.5 11 5.5 9.5 6.25 9.5 6.25 8.5 5.5 8.5 5.5 7 6.25 7 6.25 6 5.5 6 5.5 4.5 6.25 4.5 6.25 3.5 5.5 3.5 5.5 3 4.5 3 4.5 13.5 3 13.5 3 14.5 4.5 14.5 4.5 16 5.5 16 5.5 14.5 16 14.5 16 13.5 15.5 13.5"/></svg>