<svg id="star_workspace" data-name="star workspace" xmlns="http://www.w3.org/2000/svg" viewBox="0 0 36 35"><title>star workspace</title><path id="star" d="M18,4.19l3.75,7.61a2.87,2.87,0,0,0,2.16,1.56l8.4,1.22L26.23,20.5A2.88,2.88,0,0,0,25.41,23l1.43,8.36-7.51-3.95a2.85,2.85,0,0,0-2.66,0L9.16,31.4,10.59,23a2.88,2.88,0,0,0-.82-2.54L3.69,14.58l8.4-1.22a2.87,2.87,0,0,0,2.16-1.56L18,4.19" style="fill:#666"/><path id="star_border" data-name="star border" d="M35.77,14.16a.74.74,0,0,0-.41-1.27L24.22,11.27a.76.76,0,0,1-.57-.41l-5-10.1a.74.74,0,0,0-1.34,0l-5,10.1a.76.76,0,0,1-.57.41L.64,12.89a.74.74,0,0,0-.41,1.27L8.29,22a.71.71,0,0,1,.21.66L6.6,33.78a.76.76,0,0,0,.74.88.79.79,0,0,0,.35-.09l10-5.24a.73.73,0,0,1,.7,0l10,5.24a.79.79,0,0,0,.35.09.76.76,0,0,0,.74-.88l-1.9-11.1a.71.71,0,0,1,.21-.66ZM25.41,23l1.43,8.36-7.51-3.95a2.85,2.85,0,0,0-2.66,0L9.16,31.4,10.59,23a2.88,2.88,0,0,0-.82-2.54L3.69,14.58l8.4-1.22a2.87,2.87,0,0,0,2.16-1.56L18,4.19l3.75,7.61a2.87,2.87,0,0,0,2.16,1.56l8.4,1.22L26.23,20.5A2.88,2.88,0,0,0,25.41,23Z"/></svg>