<svg id="Draw_Tile" data-name="Draw Tile" xmlns="http://www.w3.org/2000/svg" viewBox="0 0 19 19"><title>Artboard 1</title><path d="M16.58,6.71l-1.1,1.12a.3.3,0,0,1-.41,0L12.42,5.14a.3.3,0,0,1,0-.41l1.1-1.12a1.14,1.14,0,0,1,1.62,0l1.44,1.46A1.16,1.16,0,0,1,16.58,6.71Z"/><path d="M14.53,8.37,11.88,5.69a.27.27,0,0,0-.4,0L5.21,12,4.7,15a.58.58,0,0,0,.56.68h.1l2.9-.52,6.27-6.35A.29.29,0,0,0,14.53,8.37ZM7.94,14.42l-1.54.27-.75-.75.27-1.57h.87v1.17H7.94ZM11.8,7.77,8.13,11.5A.34.34,0,0,1,7.65,11l3.68-3.73a.33.33,0,0,1,.47,0A.34.34,0,0,1,11.8,7.77Z"/><path d="M4,15c-.77,0-1.32-.18-1.49-.45s.05-.6.26-.85L3,13.47c.66-.77,1.66-1.93,1.22-3S2.44,9.05,0,8.89v.65c2.65.17,3.44.75,3.62,1.19.29.69-.58,1.7-1.11,2.3l-.21.26c-.66.79-.48,1.35-.31,1.62a2.33,2.33,0,0,0,2,.77h.15A1.17,1.17,0,0,1,4,15Z"/></svg>