<svg id="go_to_workspace" data-name="go to workspace" xmlns="http://www.w3.org/2000/svg" viewBox="0 0 39 30"><title>go to workspace</title><g id="workspace"><path d="M36,0H12A3,3,0,0,0,9,3V5.14l2,1.75V5H37V27a1,1,0,0,1-1,1H12a1,1,0,0,1-1-1V23.11L9,24.86V27a3,3,0,0,0,3,3H36a3,3,0,0,0,3-3V3A3,3,0,0,0,36,0Z" /></g><polygon id="tile" points="13 7 13 8.64 14 9.51 14 8 34 8 34 25 14 25 14 20.49 13 21.36 13 26 35 26 35 7 13 7" /><g id="arrow"><path d="M6.32,5.46a.74.74,0,0,0-1.2.59V9H.5a.5.5,0,0,0-.5.5V20.54a.5.5,0,0,0,.5.5H5.12V24a.74.74,0,0,0,1.2.59L17.25,15Z" /></g></svg>